<svg xmlns="http://www.w3.org/2000/svg" width="102" height="101.998" viewBox="0 0 102 101.998"><defs><style>.a{fill:#532270;}</style></defs><g transform="translate(0 -0.006)"><g transform="translate(0 0.006)"><g transform="translate(0 0)"><path class="a" d="M102,6.953A6.91,6.91,0,0,0,95.052.006,6.963,6.963,0,0,0,90.13,2.061c-.558.558-1.572,1.763-2.127,2.431A1.652,1.652,0,0,0,90.545,6.6c.869-1.047,1.588-1.872,1.922-2.206a3.679,3.679,0,0,1,2.6-1.087h.016a3.6,3.6,0,0,1,3.613,3.629,3.679,3.679,0,0,1-1.087,2.6,59.046,59.046,0,0,1-5.84,4.47,10.469,10.469,0,0,0-9.039-5.2h-24.2a12.15,12.15,0,0,0-8.647,3.582L1.517,60.761a5.177,5.177,0,0,0,0,7.322l32.406,32.406a5.184,5.184,0,0,0,7.322,0L89.614,52.121A12.149,12.149,0,0,0,93.2,43.474v-24.2a10.462,10.462,0,0,0-.209-2.086,63.245,63.245,0,0,0,6.959-5.314A6.961,6.961,0,0,0,102,6.953ZM89.891,43.474a8.865,8.865,0,0,1-2.614,6.31L38.909,98.152a1.875,1.875,0,0,1-2.649,0L3.854,65.746a1.873,1.873,0,0,1,0-2.649L52.222,14.729a8.866,8.866,0,0,1,6.31-2.614h24.2a7.167,7.167,0,0,1,6.3,3.757c-1.952,1.293-4.138,2.667-6.456,4.018-.072-.079-.146-.158-.223-.234a6.949,6.949,0,1,0,1.8,3.138c2.017-1.174,3.953-2.374,5.74-3.535,0,.006,0,.011,0,.016v24.2ZM75.966,25.307a1.652,1.652,0,0,0,2.219.734q1.453-.731,2.889-1.513A3.637,3.637,0,1,1,79.541,21.6q-1.4.763-2.841,1.488A1.651,1.651,0,0,0,75.966,25.307Z" transform="translate(0 -0.006)"/></g></g><g transform="translate(47.587 33.665)"><path class="a" d="M240.52,168.962a1.652,1.652,0,0,0-1.653,1.653v34.9a1.653,1.653,0,0,0,3.305,0v-34.9A1.652,1.652,0,0,0,240.52,168.962Z" transform="translate(-238.867 -168.962)"/></g><g transform="translate(29.838 45.83)"><path class="a" d="M161.62,232.054a6.94,6.94,0,1,0,2.033,4.908A6.948,6.948,0,0,0,161.62,232.054Zm-2.337,7.478a3.635,3.635,0,1,1,1.065-2.571A3.639,3.639,0,0,1,159.283,239.532Z" transform="translate(-149.775 -230.024)"/></g><g transform="translate(54.766 45.83)"><path class="a" d="M286.749,232.053a6.937,6.937,0,1,0,0,9.815A6.948,6.948,0,0,0,286.749,232.053Zm-2.337,7.478a3.634,3.634,0,1,1,0-5.141A3.639,3.639,0,0,1,284.412,239.532Z" transform="translate(-274.904 -230.024)"/></g></g></svg>