<svg xmlns="http://www.w3.org/2000/svg" width="187.265" height="44.18" viewBox="0 0 187.265 44.18">
  <path id="Path_1903" data-name="Path 1903" d="M153.352,7047.45a4.687,4.687,0,0,0,.691,2.37c.773,1.14,2.137,1.72,4.09,1.72a7.231,7.231,0,0,0,2.39-.38,2.651,2.651,0,0,0,2.086-2.6,2.257,2.257,0,0,0-.879-2.01,8.688,8.688,0,0,0-2.789-1.01l-2.332-.53a10.55,10.55,0,0,1-3.234-1.14,3.6,3.6,0,0,1-1.641-3.22,4.96,4.96,0,0,1,1.606-3.81,6.453,6.453,0,0,1,4.547-1.49,7.876,7.876,0,0,1,4.593,1.31,4.7,4.7,0,0,1,1.9,4.18h-2.191a3.627,3.627,0,0,0-4.372-3.47,4.226,4.226,0,0,0-2.964.86,2.719,2.719,0,0,0-.9,2.02A1.97,1.97,0,0,0,155,7042.1a15.767,15.767,0,0,0,3.129.94l2.414.55a7.492,7.492,0,0,1,2.7,1.09,4.069,4.069,0,0,1,1.641,3.5,4.366,4.366,0,0,1-2.086,4.09,9.289,9.289,0,0,1-4.828,1.23,7.2,7.2,0,0,1-5.028-1.64,5.524,5.524,0,0,1-1.781-4.41Zm23.32-1.5-2.613-7.61-2.778,7.61Zm-3.832-10.16h2.637l6.246,17.21h-2.555l-1.746-5.16h-6.809L168.75,7053h-2.391Zm11,0H186.6l8.695,13.94v-13.94h2.215V7053H194.9l-8.825-13.93V7053h-2.226Zm29.871,0v2.05h-5.8V7053h-2.367v-15.16h-5.8v-2.05Zm2.367,0h12.551v2.1H218.355v5.23h9.5v1.99h-9.5v5.84h10.454V7053H216.082Zm23.039-.47a7.046,7.046,0,0,1,5.074,1.72,6.082,6.082,0,0,1,2,3.91h-2.273a4.672,4.672,0,0,0-1.547-2.63,4.855,4.855,0,0,0-3.234-.98,5.2,5.2,0,0,0-4.114,1.8c-1.039,1.18-1.558,3.01-1.558,5.47a8.02,8.02,0,0,0,1.406,4.91,4.952,4.952,0,0,0,4.219,1.87,4.45,4.45,0,0,0,3.925-1.98,7.507,7.507,0,0,0,1.067-2.74h2.273a7.791,7.791,0,0,1-2.015,4.56,7.166,7.166,0,0,1-5.532,2.22,7.309,7.309,0,0,1-5.039-1.82c-1.789-1.6-2.683-4.08-2.683-7.42a9.5,9.5,0,0,1,2.015-6.25A7.373,7.373,0,0,1,239.121,7035.32Zm10.149.47h2.355v7.11h8.953v-7.11h2.356V7053h-2.356v-8.05h-8.953V7053H249.27Zm17.285,0h2.754l8.7,13.94v-13.94h2.215V7053h-2.614l-8.824-13.93V7053h-2.226Zm17.871,0h2.355V7053h-2.355Zm6.152,0h2.274v8.39l8.39-8.39h3.223l-7.16,6.93,7.359,10.28h-3.035l-6.024-8.64-2.753,2.64v6h-2.274Zm23.438-.47c3.039,0,5.289.97,6.75,2.93a9.478,9.478,0,0,1,1.711,5.84,10.231,10.231,0,0,1-1.957,6.41,8.7,8.7,0,0,1-12.8.38,9.915,9.915,0,0,1-2.028-6.4,10.187,10.187,0,0,1,1.735-5.98A7.519,7.519,0,0,1,314.016,7035.32Zm.234,16.1a4.846,4.846,0,0,0,4.453-2.21,9.374,9.374,0,0,0,1.383-5.08,7.25,7.25,0,0,0-1.594-4.89,5.412,5.412,0,0,0-4.336-1.85,5.633,5.633,0,0,0-4.359,1.84,7.708,7.708,0,0,0-1.688,5.4,7.943,7.943,0,0,0,1.442,4.83Q311,7051.425,314.25,7051.42Zm12.539-3.97a4.7,4.7,0,0,0,.691,2.37c.774,1.14,2.137,1.72,4.09,1.72a7.241,7.241,0,0,0,2.391-.38,2.651,2.651,0,0,0,2.086-2.6,2.257,2.257,0,0,0-.879-2.01,8.7,8.7,0,0,0-2.789-1.01l-2.332-.53a10.548,10.548,0,0,1-3.235-1.14,3.6,3.6,0,0,1-1.64-3.22,4.959,4.959,0,0,1,1.605-3.81,6.454,6.454,0,0,1,4.547-1.49,7.879,7.879,0,0,1,4.594,1.31,4.7,4.7,0,0,1,1.9,4.18h-2.191a3.627,3.627,0,0,0-4.371-3.47,4.231,4.231,0,0,0-2.965.86,2.721,2.721,0,0,0-.9,2.02,1.969,1.969,0,0,0,1.054,1.85,15.767,15.767,0,0,0,3.129.94l2.414.55a7.5,7.5,0,0,1,2.7,1.09,4.07,4.07,0,0,1,1.64,3.5,4.366,4.366,0,0,1-2.086,4.09,9.286,9.286,0,0,1-4.828,1.23,7.2,7.2,0,0,1-5.027-1.64,5.521,5.521,0,0,1-1.781-4.41Zm-167.707,13.87a7.046,7.046,0,0,1,5.074,1.72,6.082,6.082,0,0,1,2,3.91h-2.273a4.672,4.672,0,0,0-1.547-2.63,4.856,4.856,0,0,0-3.235-.98,5.2,5.2,0,0,0-4.113,1.8c-1.039,1.18-1.558,3.01-1.558,5.47a8.02,8.02,0,0,0,1.406,4.91,4.952,4.952,0,0,0,4.219,1.87,4.45,4.45,0,0,0,3.925-1.98,7.507,7.507,0,0,0,1.067-2.74h2.273a7.791,7.791,0,0,1-2.015,4.56,7.166,7.166,0,0,1-5.532,2.22,7.309,7.309,0,0,1-5.039-1.82c-1.789-1.6-2.683-4.08-2.683-7.42a9.5,9.5,0,0,1,2.015-6.25A7.373,7.373,0,0,1,159.082,7061.32Zm10.313.47h12.55v2.1H171.668v5.23h9.5v1.99h-9.5v5.84h10.453V7079H169.4Zm15.785,0h2.754l8.695,13.94v-13.94h2.215V7079H196.23l-8.824-13.93V7079H185.18Zm29.871,0v2.05h-5.8V7079h-2.367v-15.16h-5.8v-2.05Zm10.148,7.88a4.549,4.549,0,0,0,2.59-.65,2.672,2.672,0,0,0,.961-2.37,2.543,2.543,0,0,0-1.336-2.51,4.429,4.429,0,0,0-1.91-.35h-5.695v5.88Zm-7.722-7.88h7.968a8,8,0,0,1,3.246.57,4.063,4.063,0,0,1,2.426,4.07,4.554,4.554,0,0,1-.644,2.53,4.627,4.627,0,0,1-1.782,1.58,3.415,3.415,0,0,1,1.512,1.08,3.828,3.828,0,0,1,.574,2.17l.082,2.3a7.228,7.228,0,0,0,.164,1.47,1.415,1.415,0,0,0,.75,1.05v.39h-2.859a2.16,2.16,0,0,1-.187-.57,11.278,11.278,0,0,1-.118-1.36l-.14-2.87a2.428,2.428,0,0,0-1.254-2.27,5.225,5.225,0,0,0-2.1-.31h-5.308V7079h-2.332Zm25.9,10.16-2.613-7.61-2.778,7.61Zm-3.832-10.16h2.637l6.246,17.21h-2.555l-1.746-5.16h-6.809l-1.863,5.16h-2.391Zm12.527,11.66a4.687,4.687,0,0,0,.692,2.37c.773,1.14,2.136,1.72,4.09,1.72a7.235,7.235,0,0,0,2.39-.38,2.651,2.651,0,0,0,2.086-2.6,2.257,2.257,0,0,0-.879-2.01,8.7,8.7,0,0,0-2.789-1.01l-2.332-.53a10.551,10.551,0,0,1-3.234-1.14,3.6,3.6,0,0,1-1.641-3.22,4.956,4.956,0,0,1,1.606-3.81,6.452,6.452,0,0,1,4.546-1.49,7.879,7.879,0,0,1,4.594,1.31,4.7,4.7,0,0,1,1.9,4.18h-2.192a3.627,3.627,0,0,0-4.371-3.47,4.231,4.231,0,0,0-2.965.86,2.721,2.721,0,0,0-.9,2.02,1.97,1.97,0,0,0,1.055,1.85,15.767,15.767,0,0,0,3.129.94l2.414.55a7.492,7.492,0,0,1,2.7,1.09,4.069,4.069,0,0,1,1.641,3.5,4.368,4.368,0,0,1-2.086,4.09,9.291,9.291,0,0,1-4.828,1.23,7.2,7.2,0,0,1-5.028-1.64,5.521,5.521,0,0,1-1.781-4.41Z" transform="translate(-151.055 -7035.32)"/>
</svg>
