<svg xmlns="http://www.w3.org/2000/svg" width="187.265" height="44.188" viewBox="0 0 187.265 44.188">
  <path id="Path_1234" data-name="Path 1234" d="M153.352,64.445a4.7,4.7,0,0,0,.691,2.379q1.159,1.711,4.09,1.711a7.232,7.232,0,0,0,2.39-.375,2.656,2.656,0,0,0,2.086-2.6,2.246,2.246,0,0,0-.879-2,8.862,8.862,0,0,0-2.789-1.02l-2.332-.527a10.561,10.561,0,0,1-3.234-1.137,3.6,3.6,0,0,1-1.641-3.223,4.964,4.964,0,0,1,1.606-3.809,6.441,6.441,0,0,1,4.547-1.488,7.842,7.842,0,0,1,4.593,1.313,4.694,4.694,0,0,1,1.9,4.172h-2.191a3.636,3.636,0,0,0-4.372-3.469,4.185,4.185,0,0,0-2.964.867,2.713,2.713,0,0,0-.9,2.016A1.969,1.969,0,0,0,155,59.1a15.48,15.48,0,0,0,3.129.938l2.414.551a7.4,7.4,0,0,1,2.7,1.09,4.081,4.081,0,0,1,1.641,3.5,4.37,4.37,0,0,1-2.086,4.09,9.283,9.283,0,0,1-4.828,1.23,7.23,7.23,0,0,1-5.028-1.641,5.537,5.537,0,0,1-1.781-4.418Zm23.32-1.5-2.613-7.605-2.778,7.605Zm-3.832-10.16h2.637L181.723,70h-2.555l-1.746-5.156h-6.809L168.75,70h-2.391Zm11,0H186.6l8.695,13.945V52.785h2.215V70H194.9L186.07,56.066V70h-2.226Zm29.871,0v2.051h-5.8V70h-2.367V54.836h-5.8V52.785Zm2.367,0h12.551v2.109H218.355v5.227h9.5v1.992h-9.5v5.836h10.454V70H216.082Zm23.039-.469a7.053,7.053,0,0,1,5.074,1.723,6.085,6.085,0,0,1,2,3.914h-2.273a4.721,4.721,0,0,0-1.547-2.637,4.861,4.861,0,0,0-3.234-.973,5.207,5.207,0,0,0-4.114,1.793q-1.559,1.781-1.558,5.473a8,8,0,0,0,1.406,4.91,4.955,4.955,0,0,0,4.219,1.875,4.45,4.45,0,0,0,3.925-1.98,7.535,7.535,0,0,0,1.067-2.742h2.273a7.771,7.771,0,0,1-2.015,4.559,7.174,7.174,0,0,1-5.532,2.215,7.3,7.3,0,0,1-5.039-1.816q-2.683-2.4-2.683-7.418a9.48,9.48,0,0,1,2.015-6.246A7.363,7.363,0,0,1,239.121,52.316Zm10.149.469h2.355V59.9h8.953V52.785h2.356V70h-2.356V61.949h-8.953V70H249.27Zm17.285,0h2.754L278,66.73V52.785h2.215V70h-2.614l-8.824-13.934V70h-2.226Zm17.871,0h2.355V70h-2.355Zm6.152,0h2.274v8.391l8.39-8.391h3.223l-7.16,6.938L304.664,70h-3.035l-6.024-8.637L292.852,64v6h-2.274Zm23.438-.469q4.559,0,6.75,2.93a9.5,9.5,0,0,1,1.711,5.848,10.237,10.237,0,0,1-1.957,6.41,8.7,8.7,0,0,1-12.8.375,9.91,9.91,0,0,1-2.028-6.4A10.172,10.172,0,0,1,307.43,55.5,7.513,7.513,0,0,1,314.016,52.316Zm.234,16.1a4.844,4.844,0,0,0,4.453-2.2,9.4,9.4,0,0,0,1.383-5.086,7.227,7.227,0,0,0-1.594-4.887,5.4,5.4,0,0,0-4.336-1.852,5.645,5.645,0,0,0-4.359,1.84,7.707,7.707,0,0,0-1.688,5.4,7.95,7.95,0,0,0,1.442,4.828A5.467,5.467,0,0,0,314.25,68.418Zm12.539-3.973a4.71,4.71,0,0,0,.691,2.379q1.161,1.711,4.09,1.711a7.242,7.242,0,0,0,2.391-.375,2.656,2.656,0,0,0,2.086-2.6,2.246,2.246,0,0,0-.879-2,8.872,8.872,0,0,0-2.789-1.02l-2.332-.527a10.559,10.559,0,0,1-3.235-1.137,3.6,3.6,0,0,1-1.64-3.223,4.963,4.963,0,0,1,1.605-3.809,6.443,6.443,0,0,1,4.547-1.488,7.845,7.845,0,0,1,4.594,1.313,4.694,4.694,0,0,1,1.9,4.172h-2.191a4.31,4.31,0,0,0-.75-2.121,4.357,4.357,0,0,0-3.621-1.348,4.19,4.19,0,0,0-2.965.867,2.716,2.716,0,0,0-.9,2.016,1.968,1.968,0,0,0,1.054,1.852,15.48,15.48,0,0,0,3.129.938l2.414.551a7.4,7.4,0,0,1,2.7,1.09,4.082,4.082,0,0,1,1.64,3.5,4.37,4.37,0,0,1-2.086,4.09,9.281,9.281,0,0,1-4.828,1.23,7.229,7.229,0,0,1-5.027-1.641,5.534,5.534,0,0,1-1.781-4.418ZM159.082,78.316a7.053,7.053,0,0,1,5.074,1.723,6.085,6.085,0,0,1,2,3.914h-2.273a4.721,4.721,0,0,0-1.547-2.637,4.862,4.862,0,0,0-3.235-.973,5.206,5.206,0,0,0-4.113,1.793q-1.559,1.781-1.558,5.473a8,8,0,0,0,1.406,4.91,4.955,4.955,0,0,0,4.219,1.875,4.45,4.45,0,0,0,3.925-1.98,7.535,7.535,0,0,0,1.067-2.742h2.273a7.771,7.771,0,0,1-2.015,4.559,7.174,7.174,0,0,1-5.532,2.215,7.3,7.3,0,0,1-5.039-1.816q-2.684-2.4-2.683-7.418a9.48,9.48,0,0,1,2.015-6.246A7.362,7.362,0,0,1,159.082,78.316Zm10.313.469h12.55v2.109H171.668v5.227h9.5v1.992h-9.5v5.836h10.453V96H169.4Zm15.785,0h2.754l8.695,13.945V78.785h2.215V96H196.23l-8.824-13.934V96H185.18Zm29.871,0v2.051h-5.8V96h-2.367V80.836h-5.8V78.785ZM225.2,86.672a4.491,4.491,0,0,0,2.59-.656,2.663,2.663,0,0,0,.961-2.367,2.539,2.539,0,0,0-1.336-2.508,4.363,4.363,0,0,0-1.91-.352h-5.695v5.883Zm-7.722-7.887h7.968a7.944,7.944,0,0,1,3.246.574,4.065,4.065,0,0,1,2.426,4.066,4.256,4.256,0,0,1-2.426,4.113,3.477,3.477,0,0,1,1.512,1.078,3.834,3.834,0,0,1,.574,2.168l.082,2.309a7.206,7.206,0,0,0,.164,1.465,1.442,1.442,0,0,0,.75,1.055V96h-2.859a2.124,2.124,0,0,1-.187-.574,11.1,11.1,0,0,1-.118-1.359l-.14-2.871a2.413,2.413,0,0,0-1.254-2.262,5.188,5.188,0,0,0-2.1-.316h-5.308V96h-2.332Zm25.9,10.16-2.613-7.605-2.778,7.605Zm-3.832-10.16h2.637L248.426,96h-2.555l-1.746-5.156h-6.809L235.453,96h-2.391Zm12.527,11.66a4.7,4.7,0,0,0,.692,2.379q1.16,1.711,4.09,1.711a7.237,7.237,0,0,0,2.39-.375,2.656,2.656,0,0,0,2.086-2.6,2.246,2.246,0,0,0-.879-2,8.872,8.872,0,0,0-2.789-1.02l-2.332-.527a10.561,10.561,0,0,1-3.234-1.137,3.6,3.6,0,0,1-1.641-3.223,4.961,4.961,0,0,1,1.606-3.809,6.44,6.44,0,0,1,4.546-1.488,7.845,7.845,0,0,1,4.594,1.313,4.694,4.694,0,0,1,1.9,4.172h-2.192a4.31,4.31,0,0,0-.75-2.121,4.357,4.357,0,0,0-3.621-1.348,4.19,4.19,0,0,0-2.965.867,2.716,2.716,0,0,0-.9,2.016,1.969,1.969,0,0,0,1.055,1.852,15.48,15.48,0,0,0,3.129.938l2.414.551a7.4,7.4,0,0,1,2.7,1.09,4.081,4.081,0,0,1,1.641,3.5,4.372,4.372,0,0,1-2.086,4.09,9.286,9.286,0,0,1-4.828,1.23,7.23,7.23,0,0,1-5.028-1.641,5.534,5.534,0,0,1-1.781-4.418Z" transform="translate(-151.055 -52.316)" fill="#532270"/>
</svg>
