<svg xmlns="http://www.w3.org/2000/svg" width="45.002" height="42" viewBox="0 0 45.002 42">
  <path id="Path_6390" data-name="Path 6390" d="M1465.46,2206.98l3.08-2.9a4.534,4.534,0,0,0,0-6.67,5.131,5.131,0,0,0-2.09-1.18,4.477,4.477,0,0,0,.97-2.78,4.576,4.576,0,0,0-1.46-3.34,5.137,5.137,0,0,0-3.54-1.38,1.028,1.028,0,0,0-.17.01,4.554,4.554,0,0,0-1.45-3.49,5.168,5.168,0,0,0-3.7-1.38v-.16a4.527,4.527,0,0,0-1.47-3.33,5.218,5.218,0,0,0-7.07,0l-1.06,1-1.06-1a5.218,5.218,0,0,0-7.07,0,4.53,4.53,0,0,0-1.46,3.49h-.17a5.139,5.139,0,0,0-3.54,1.38,4.554,4.554,0,0,0-1.45,3.49c-.06,0-.12-.01-.17-.01a5.137,5.137,0,0,0-3.54,1.38,4.576,4.576,0,0,0-1.46,3.34,4.477,4.477,0,0,0,.97,2.78,5.117,5.117,0,0,0-2.09,1.18,4.538,4.538,0,0,0-.01,6.66.01.01,0,0,1,.01.01l3.09,2.91.01.01a4.494,4.494,0,0,0,.59.47l-.91.86a4.028,4.028,0,0,0-1.27,3.21,4.721,4.721,0,0,0,1.52,3.18l5.21,4.91a5.181,5.181,0,0,0,7.02,0l2.42-2.28a17.279,17.279,0,0,0,6.72,0l2.42,2.28a5.181,5.181,0,0,0,7.02,0l5.21-4.91c1.94-1.83,2.16-4.59.49-6.16l-1.11-1.05.55-.51Zm-24.19-24.8a2.4,2.4,0,0,1,3.26,0l4.13,3.89a2.1,2.1,0,0,1,0,3.07,2.386,2.386,0,0,1-1.63.64h0a2.386,2.386,0,0,1-1.63-.64h0l-4.12-3.89c-.01-.01-.01-.01-.02-.01A2.1,2.1,0,0,1,1441.27,2182.18Zm-5.16,7.93a2.087,2.087,0,0,1,0-3.06,2.4,2.4,0,0,1,3.26,0h0l4.12,3.89c.01,0,.01,0,.01.01l1.03.96a2.122,2.122,0,0,1,.67,1.54,2.1,2.1,0,0,1-.67,1.53,2.4,2.4,0,0,1-3.26,0c0-.01-.01-.01-.01-.02l-1.01-.95h-.01l-4.13-3.9Zm-5.16,1.8a2.36,2.36,0,0,1,1.63-.63,2.335,2.335,0,0,1,1.62.63l4.14,3.9a2.079,2.079,0,0,1-.01,3.06,2.383,2.383,0,0,1-3.25,0c-.01,0-.01-.01-.02-.01l-4.1-3.87-.01-.01a2.1,2.1,0,0,1-.67-1.53A2.122,2.122,0,0,1,1430.95,2191.91Zm-2.57,10.38-.01-.01a2.083,2.083,0,0,1,0-3.07,2.411,2.411,0,0,1,3.25,0l3.1,2.92a2.083,2.083,0,0,1,0,3.07,2.341,2.341,0,0,1-1.63.63h0a1.826,1.826,0,0,1-.33-.02h-.02a2.324,2.324,0,0,1-1.26-.6.01.01,0,0,1-.01-.01Zm15.69,12.43a.06.06,0,0,0-.04-.01c-.02-.01-.05-.01-.08-.02h-.06a.127.127,0,0,0-.06-.01h-.08a.09.09,0,0,0-.05-.01c-.03,0-.05.01-.08.01h-.05a.219.219,0,0,1-.08.01.109.109,0,0,1-.05.01.643.643,0,0,0-.07.02.141.141,0,0,0-.06.02c-.02,0-.04.01-.06.01s-.05.02-.07.03-.03.01-.05.02l-.06.03-.06.03a.218.218,0,0,0-.05.04.209.209,0,0,0-.06.04c-.02.01-.03.02-.05.03l-.06.06a.022.022,0,0,0-.02.02l-2.96,2.78a2.347,2.347,0,0,1-3.2,0l-5.22-4.91a2.259,2.259,0,0,1-.73-1.51,1.6,1.6,0,0,1,.49-1.28l1.86-1.75h.08a5.138,5.138,0,0,0,3.54-1.38,4.532,4.532,0,0,0,1.12-5.05,5.007,5.007,0,0,0,2.49-1.28,4.5,4.5,0,0,0,1.41-2.66,5.21,5.21,0,0,0,1.25.15h0a5.138,5.138,0,0,0,3.54-1.38,4.555,4.555,0,0,0,1.46-3.33,4.2,4.2,0,0,0-.16-1.18,5.082,5.082,0,0,0,2.83-1.33,4.549,4.549,0,0,0,0-6.67l-1.16-1.09,1.06-1a2.4,2.4,0,0,1,3.26,0,2.1,2.1,0,0,1,.67,1.53,2.121,2.121,0,0,1-.67,1.54,1.21,1.21,0,0,0-.4.9,1.226,1.226,0,0,0,.4.9,1.412,1.412,0,0,0,1.9,0,2.4,2.4,0,0,1,3.26,0,2.079,2.079,0,0,1,0,3.06,1.225,1.225,0,0,0-.4.9,1.209,1.209,0,0,0,.4.9,1.4,1.4,0,0,0,1.91,0,2.411,2.411,0,0,1,3.25,0,2.122,2.122,0,0,1,.67,1.54,2.073,2.073,0,0,1-.65,1.51c-.01.01-.02.01-.02.02l-1.94,1.82a1.24,1.24,0,0,0-.11,1.69l.07.08a1.4,1.4,0,0,0,1.76.31,2.4,2.4,0,0,1,2.8.33,2.083,2.083,0,0,1,0,3.07l-3.1,2.92a.035.035,0,0,0-.01.02l-6.65,6.26A13.837,13.837,0,0,1,1444.07,2214.72Zm20.03-4.36c.59.56.36,1.75-.49,2.56l-5.22,4.91a2.347,2.347,0,0,1-3.2,0l-1.43-1.35a16.038,16.038,0,0,0,5.02-3.2l4.21-3.97Z" transform="translate(-1425 -2179)" fill="#532270"/>
</svg>
