<svg xmlns="http://www.w3.org/2000/svg" xmlns:xlink="http://www.w3.org/1999/xlink" width="49" height="48" viewBox="0 0 49 48">
  <defs>
    <filter id="Ellipse_40" x="0" y="0" width="49" height="48" filterUnits="userSpaceOnUse">
      <feOffset dy="5" input="SourceAlpha"/>
      <feGaussianBlur stdDeviation="3" result="blur"/>
      <feFlood flood-opacity="0.161"/>
      <feComposite operator="in" in2="blur"/>
      <feComposite in="SourceGraphic"/>
    </filter>
  </defs>
  <g id="Group_5028" data-name="Group 5028" transform="translate(9.193 3.871)">
    <g transform="matrix(1, 0, 0, 1, -9.19, -3.87)" filter="url(#Ellipse_40)">
      <ellipse id="Ellipse_40-2" data-name="Ellipse 40" cx="15.5" cy="15" rx="15.5" ry="15" transform="translate(9 4)" fill="#fb0303"/>
    </g>
    <path id="Path_5500" data-name="Path 5500" d="M606.006,2195.949a.572.572,0,0,0-.81.807l1.781,1.78a.569.569,0,0,0,.809,0l3.561-3.56a.572.572,0,0,0-.809-.807l-3.156,3.156Z" transform="translate(-592.799 -2180.957)" fill="#fff"/>
    <path id="Path_5501" data-name="Path 5501" d="M609.548,2179.669a4.423,4.423,0,0,1-3.921-2.366.574.574,0,0,0-.507-.3h-5.634a.574.574,0,0,0-.507.3,4.425,4.425,0,0,1-3.925,2.366.573.573,0,0,0-.573.573v5.83a10.946,10.946,0,0,0,7.649,10.435.581.581,0,0,0,.345,0,10.946,10.946,0,0,0,7.649-10.435v-5.83A.576.576,0,0,0,609.548,2179.669Zm-.569,6.4a9.767,9.767,0,0,1-6.676,9.289,9.767,9.767,0,0,1-6.676-9.289v-5.287a5.554,5.554,0,0,0,4.192-2.639h4.969a5.551,5.551,0,0,0,4.192,2.639Z" transform="translate(-586.83 -2171.336)" fill="#fff"/>
    <path id="Path_5502" data-name="Path 5502" d="M607.333,2182.483a.57.57,0,0,0-.443-.213h-3.2a.57.57,0,0,0-.443.213,6.68,6.68,0,0,1-3.094,2.122.572.572,0,0,0-.393.543v3.906a8.623,8.623,0,0,0,5.312,7.983.582.582,0,0,0,.44,0,8.623,8.623,0,0,0,5.312-7.983v-3.906a.572.572,0,0,0-.393-.543A6.68,6.68,0,0,1,607.333,2182.483Zm2.342,6.572a7.476,7.476,0,0,1-4.387,6.828,7.476,7.476,0,0,1-4.387-6.828v-3.5a7.8,7.8,0,0,0,3.051-2.136h2.673a7.8,7.8,0,0,0,3.051,2.136Z" transform="translate(-589.815 -2174.319)" fill="#fff"/>
  </g>
</svg>
