<svg xmlns="http://www.w3.org/2000/svg" xmlns:xlink="http://www.w3.org/1999/xlink" width="46" height="46" viewBox="0 0 46 46">
  <defs>
    <clipPath id="clip-path">
      <rect id="Rectangle_3387" data-name="Rectangle 3387" width="46" height="46" transform="translate(1007 2177)" fill="#fff"/>
    </clipPath>
  </defs>
  <g id="Group_3523" data-name="Group 3523" transform="translate(-1007 -2177)" clip-path="url(#clip-path)">
    <path id="Path_6393" data-name="Path 6393" d="M1051.82,2210.93l-5.72-5.72a4.044,4.044,0,0,0-5.72,0l-2.6,2.6a3.072,3.072,0,0,1-4.33,0l-11.27-11.28a3.072,3.072,0,0,1,0-4.33l2.6-2.6a4.044,4.044,0,0,0,0-5.72l-5.72-5.7a4.05,4.05,0,0,0-5.71,0c-1.18,1.17-1.56,1.54-2.08,2.06a14.609,14.609,0,0,0-.01,20.63l17.86,17.86a14.588,14.588,0,0,0,20.62,0l2.08-2.08A4.062,4.062,0,0,0,1051.82,2210.93Zm-36.57-30.84a1.346,1.346,0,0,1,1.91,0l5.72,5.7a1.364,1.364,0,0,1,0,1.91l-.96.95-7.62-7.62Zm15.77,36.73-17.85-17.86a11.842,11.842,0,0,1-.74-15.99l7.6,7.59a5.749,5.749,0,0,0,.25,7.88l11.26,11.27h0a5.76,5.76,0,0,0,7.88.26l7.6,7.59A11.835,11.835,0,0,1,1031.02,2216.82Zm18.89-2.08-.95.95-7.63-7.62.96-.95a1.334,1.334,0,0,1,1.9,0l5.72,5.71A1.346,1.346,0,0,1,1049.91,2214.74Z" fill="#532270"/>
  </g>
</svg>
