<svg xmlns="http://www.w3.org/2000/svg" width="92.809" height="131.996" viewBox="0 0 92.809 131.996">
  <g id="address" transform="translate(-76)">
    <path id="Path_6726" data-name="Path 6726" d="M155.24,106.828a56.128,56.128,0,0,0-13.824-4.149c1.59-1.646,3.215-3.407,4.845-5.276A106.674,106.674,0,0,0,161.7,74.734c4.72-9.579,7.113-19.11,7.113-28.33A46.4,46.4,0,1,0,76,46.4c0,9.219,2.393,18.751,7.113,28.33A106.673,106.673,0,0,0,98.548,97.4c1.629,1.869,3.255,3.63,4.845,5.276a56.128,56.128,0,0,0-13.824,4.149c-6.953,3.318-8.413,7.106-8.413,9.7,0,3.283,2.271,7.954,13.089,11.56,7.56,2.52,17.561,3.908,28.16,3.908s20.6-1.388,28.16-3.908c10.818-3.606,13.089-8.277,13.089-11.56,0-2.593-1.46-6.381-8.413-9.7ZM81.156,46.4a41.249,41.249,0,1,1,82.5,0c0,19.141-11.53,36.408-21.2,47.523A142.216,142.216,0,0,1,122.4,112.8a142.236,142.236,0,0,1-20.047-18.871c-9.672-11.115-21.2-28.382-21.2-47.523ZM148.934,123.2c-7.048,2.349-16.47,3.643-26.529,3.643s-19.481-1.294-26.529-3.643-9.563-5.063-9.563-6.669c0-2.678,6.719-7.291,21.613-9.352,2.206,2.1,4.26,3.921,6.055,5.449-2.735.945-4.465,2.342-4.465,3.9,0,2.849,5.772,5.156,12.89,5.156s12.89-2.307,12.89-5.156c0-1.56-1.73-2.958-4.465-3.9,1.795-1.528,3.849-3.353,6.055-5.449,14.894,2.061,21.613,6.673,21.613,9.352C158.5,118.133,155.993,120.844,148.934,123.2Z" fill="#754e8c"/>
    <path id="Path_6727" data-name="Path 6727" d="M188.185,76.093a36.093,36.093,0,1,0-36.093,36.093A36.134,36.134,0,0,0,188.185,76.093Zm-67.029,0a30.936,30.936,0,1,1,30.936,30.936A30.972,30.972,0,0,1,121.156,76.093Z" transform="translate(-29.688 -29.688)" fill="#754e8c"/>
  </g>
</svg>
