<svg xmlns="http://www.w3.org/2000/svg" width="41.401" height="37.265" viewBox="0 0 41.401 37.265">
  <g id="shopping_·_cart_·_ecommerce_·_add_·_online" data-name="shopping  · cart · ecommerce · add · online" transform="translate(-2 -8)">
    <path id="Path_20686" data-name="Path 20686" d="M35.811,8a7.6,7.6,0,0,0-7.59,7.59,7.362,7.362,0,0,0,.3,2.072H12.6l-.807-7.666A2.208,2.208,0,0,0,9.59,8H4.07a2.016,2.016,0,0,0-1.456.607,2.047,2.047,0,0,0-.559,1.932,2.162,2.162,0,0,0,2.125,1.6H7.6l2.6,23.468A3.45,3.45,0,0,0,10.28,42.5H13.8a3.45,3.45,0,0,0,6.762,0H27.6a3.45,3.45,0,0,0,6.762,0h2.829a.69.69,0,1,0,0-1.38H34.362a3.45,3.45,0,0,0-6.762,0H20.562a3.45,3.45,0,0,0-6.762,0H10.28a2.07,2.07,0,0,1,0-4.14H36.743A2.063,2.063,0,0,0,38.772,35.3l2.85-14.842A7.581,7.581,0,0,0,35.811,8Zm-4.83,31.741a2.07,2.07,0,1,1-2.07,2.07,2.07,2.07,0,0,1,2.07-2.07Zm-13.8,0a2.07,2.07,0,1,1-2.07,2.07,2.07,2.07,0,0,1,2.07-2.07Zm20.238-4.7a.69.69,0,0,1-.676.559H11.592L8.963,11.981A1.38,1.38,0,0,0,7.589,10.76H4.181a.78.78,0,0,1-.78-.531.655.655,0,0,1,.193-.649.64.64,0,0,1,.476-.2H9.59a.837.837,0,0,1,.828.759l.876,8.28a.69.69,0,0,0,.683.621H29.056a7.67,7.67,0,0,0,.9,1.38H12.247a.69.69,0,0,0-.511.228.715.715,0,0,0-.179.531L12.778,33.6a.69.69,0,0,0,.683.621h22.35a.69.69,0,0,0,.683-.58l1.815-10.889a8.031,8.031,0,0,0,1.622-.794ZM25.461,28.7v-2.76h4.982l-.311,2.76Zm4.52,1.38-.311,2.76H25.461v-2.76Zm-4.52-5.52V21.8H30.9l-.3,2.76ZM19.41,28.7l-.311-2.76h4.982V28.7Zm4.671,1.38v2.76H19.872l-.311-2.76Zm-5.134-5.52-.3-2.76h5.437v2.76Zm-1.235,1.38.311,2.76h-4.34l-.269-2.76Zm-4.437-1.38-.269-2.76H17.25l.311,2.76Zm4.9,5.52.3,2.76H14.089l-.269-2.76Zm18.2-4.14-.462,2.76h-4.4l.311-2.76Zm-4.4-1.38.255-2.277a7.336,7.336,0,0,0,4.616.814L36.6,24.561Zm3.705,5.52-.462,2.76H31.064l.3-2.76Zm.124-8.28a6.21,6.21,0,1,1,6.21-6.21,6.21,6.21,0,0,1-6.21,6.21Z" fill="#ffffff"/>
    <path id="Path_20687" data-name="Path 20687" d="M48.14,17.52v3.45a.69.69,0,0,0,1.38,0V17.52h3.45a.69.69,0,0,0,0-1.38H49.52V12.69a.69.69,0,0,0-1.38,0v3.45H44.69a.69.69,0,0,0,0,1.38Z" transform="translate(-13.019 -1.24)" fill="#ffffff"/>
  </g>
</svg>
