<svg xmlns="http://www.w3.org/2000/svg" width="28.302" height="28.16" viewBox="0 0 28.302 28.16"><g transform="translate(0 -0.261)"><path d="M26.122,54.1a.7.7,0,0,0-.7.7v6.258A2.117,2.117,0,0,1,23.3,63.179H3.524A2.117,2.117,0,0,1,1.41,61.065V42.7a2.117,2.117,0,0,1,2.115-2.115H9.783a.7.7,0,0,0,0-1.41H3.524A3.528,3.528,0,0,0,0,42.7V61.065a3.528,3.528,0,0,0,3.524,3.524H23.3a3.528,3.528,0,0,0,3.524-3.524V54.806a.7.7,0,0,0-.7-.7Zm0,0" transform="translate(0 -36.169)"/><path d="M127.112,1.19a3.172,3.172,0,0,0-4.486,0L110.05,13.765a.7.7,0,0,0-.181.31l-1.654,5.97a.7.7,0,0,0,.867.868l5.97-1.654a.7.7,0,0,0,.31-.181L127.939,6.5a3.175,3.175,0,0,0,0-4.486ZM111.586,14.223,121.878,3.931,125.2,7.25,114.905,17.542Zm-.663,1.33,2.652,2.652-3.668,1.016ZM126.942,5.506l-.748.748-3.319-3.319.748-.748a1.762,1.762,0,0,1,2.492,0l.827.827A1.765,1.765,0,0,1,126.942,5.506Zm0,0" transform="translate(-100.564)"/></g></svg>