<svg xmlns="http://www.w3.org/2000/svg" xmlns:xlink="http://www.w3.org/1999/xlink" width="32" height="32" viewBox="0 0 32 32">
  <defs>
    <clipPath id="clip-path">
      <rect id="Rectangle_984" data-name="Rectangle 984" width="32" height="32" transform="translate(1574 7041.5)"/>
    </clipPath>
  </defs>
  <g id="Group_997" data-name="Group 997" transform="translate(-1574 -7041.5)" opacity="0.8">
    <g id="Group_996" data-name="Group 996" clip-path="url(#clip-path)">
      <path id="Path_1906" data-name="Path 1906" d="M1596,7041.5h-12a10,10,0,0,0-10,10v12a10,10,0,0,0,10,10h12a10,10,0,0,0,10-10v-12A10,10,0,0,0,1596,7041.5Zm7,22a7.008,7.008,0,0,1-7,7h-12a7.008,7.008,0,0,1-7-7v-12a7.008,7.008,0,0,1,7-7h12a7.008,7.008,0,0,1,7,7Z"/>
      <path id="Path_1907" data-name="Path 1907" d="M1590,7049.5a8,8,0,1,0,8,8A8,8,0,0,0,1590,7049.5Zm0,13a5,5,0,1,1,5-5A5,5,0,0,1,1590,7062.5Z"/>
      <path id="Path_1908" data-name="Path 1908" d="M1598.6,7049.97a1.07,1.07,0,1,0-1.07-1.07A1.071,1.071,0,0,0,1598.6,7049.97Z"/>
    </g>
  </g>
</svg>
