<svg xmlns="http://www.w3.org/2000/svg" width="75" height="58.696" viewBox="0 0 75 58.696"><defs><style>.a{fill:#532270;}.b{fill:#fafafa;}</style></defs><g transform="translate(0 -53.334)"><g transform="translate(13.041 59.874)"><path d="M86.947,115.668a1.63,1.63,0,0,1-1.154-2.785l16.3-16.3a1.63,1.63,0,0,1,2.305,2.305l-16.3,16.3A1.63,1.63,0,0,1,86.947,115.668Z" transform="translate(-85.314 -96.121)"/><path d="M295.37,115.686a1.63,1.63,0,0,1-1.154-.476l-16.3-16.3a1.63,1.63,0,0,1,2.305-2.305l16.3,16.3a1.63,1.63,0,0,1-1.151,2.781Z" transform="translate(-248.085 -96.139)"/></g><path class="a" d="M8.152,202.667h58.7A8.152,8.152,0,0,1,75,210.819v19.565a8.152,8.152,0,0,1-8.152,8.152H8.152A8.152,8.152,0,0,1,0,230.384V210.819A8.152,8.152,0,0,1,8.152,202.667Z" transform="translate(0 -126.507)"/><g transform="translate(6.522 82.682)"><path class="b" d="M44.3,268.159a1.631,1.631,0,0,1-1.63-1.63V246.963a1.631,1.631,0,0,1,1.63-1.63h9.783a1.63,1.63,0,0,1,0,3.261H45.927v17.935A1.631,1.631,0,0,1,44.3,268.159Z" transform="translate(-42.666 -245.333)"/><path class="b" d="M50.818,312.594H44.3a1.63,1.63,0,1,1,0-3.261h6.522a1.63,1.63,0,1,1,0,3.261Z" transform="translate(-42.666 -299.55)"/><path class="b" d="M160.746,268.159a1.63,1.63,0,0,1-1.154-.476l-7-7v5.847a1.63,1.63,0,0,1-3.261,0V246.963a1.631,1.631,0,0,1,1.63-1.63h4.891a6.522,6.522,0,1,1,0,13.044H154.9l7,7a1.63,1.63,0,0,1-1.151,2.785Zm-8.152-13.044h3.261a3.261,3.261,0,1,0,0-6.522h-3.261Z" transform="translate(-133.029 -245.333)"/><path class="b" d="M267.413,268.159H257.63a1.63,1.63,0,0,1-1.63-1.63V246.963a1.631,1.631,0,0,1,1.63-1.63h9.783a1.63,1.63,0,0,1,0,3.261h-8.152v16.3h8.152a1.63,1.63,0,1,1,0,3.261Z" transform="translate(-223.391 -245.333)"/><path class="b" d="M264.151,312.594H257.63a1.63,1.63,0,1,1,0-3.261h6.522a1.63,1.63,0,1,1,0,3.261Z" transform="translate(-223.39 -299.55)"/><path class="b" d="M374.079,268.159H364.3a1.631,1.631,0,0,1-1.631-1.63V246.963a1.631,1.631,0,0,1,1.631-1.63h9.783a1.63,1.63,0,0,1,0,3.261h-8.152v16.3h8.152a1.63,1.63,0,1,1,0,3.261Z" transform="translate(-313.753 -245.333)"/><path class="b" d="M370.818,312.594H364.3a1.63,1.63,0,1,1,0-3.261h6.522a1.63,1.63,0,0,1,0,3.261Z" transform="translate(-313.753 -299.55)"/></g><path class="a" d="M200.152,69.638a8.152,8.152,0,1,1,8.152-8.152A8.152,8.152,0,0,1,200.152,69.638Z" transform="translate(-162.652)"/></g></svg>