<svg xmlns="http://www.w3.org/2000/svg" width="34.656" height="34.656" viewBox="0 0 34.656 34.656"><defs><style>.a{fill:#fff;}</style></defs><g transform="translate(0 0)"><g transform="translate(0 0)"><path class="a" d="M34.079,9.242H30.407A5.194,5.194,0,0,0,27.147,0H22.083a5.2,5.2,0,0,0-4.755,3.1A5.2,5.2,0,0,0,12.573,0H7.509a5.194,5.194,0,0,0-3.26,9.242H.578A.578.578,0,0,0,0,9.819V15.6a.578.578,0,0,0,.578.578H1.733V34.079a.578.578,0,0,0,.578.578H32.346a.578.578,0,0,0,.578-.578V16.173h1.155a.578.578,0,0,0,.578-.578V9.819A.578.578,0,0,0,34.079,9.242ZM26.123,1.2c.047-.007.093-.016.14-.022a4.012,4.012,0,0,1,.441-.026h.444a4.043,4.043,0,0,1,0,8.086H25.791a5.193,5.193,0,0,0,.107-8C25.973,1.229,26.048,1.215,26.123,1.2Zm-1.5.554a4.033,4.033,0,0,1-2.1,7.484h-2L23,3.578A4.032,4.032,0,0,1,24.624,1.758ZM20.536,10.4H24.48l2.728,5.457L29.1,19.639H27.147a.578.578,0,0,0-.462.231L25.537,21.4l-2.747-6.042Zm.832,4.621H20.216V12.485ZM10.032,1.758a4.032,4.032,0,0,1,1.625,1.82l2.478,5.664h-2a4.033,4.033,0,0,1-2.1-7.484ZM14.121,10.4l-2.253,4.959L9.119,21.4,7.971,19.87a.578.578,0,0,0-.462-.231H5.555l1.9-3.785L10.176,10.4ZM3.466,5.2A4.048,4.048,0,0,1,7.509,1.155h.444a4.012,4.012,0,0,1,.441.026c.047.006.093.015.14.022.076.012.151.025.225.041a5.193,5.193,0,0,0,.107,8H7.509A4.048,4.048,0,0,1,3.466,5.2Zm-2.31,9.819V10.4H8.885l-2.31,4.621ZM14.44,33.5H2.888V16.173H6L4.1,19.958a.578.578,0,0,0,.517.836h2.6l1.56,2.079a.578.578,0,0,0,.462.231.562.562,0,0,0,.062,0,.578.578,0,0,0,.462-.335l3-6.593H14.44Zm0-18.483H13.289l1.151-2.532Zm-1.725-11.9a5.172,5.172,0,0,0-1.506-1.96h1.365a4.043,4.043,0,0,1,3.7,2.422l.42.961-1.68,3.84ZM19.061,33.5H15.6V10.4h3.466ZM15.9,9.242l2.478-5.664a4.043,4.043,0,0,1,3.7-2.422h1.368a5.172,5.172,0,0,0-1.506,1.96L19.261,9.242ZM31.768,33.5H20.216V16.173h1.675l3,6.593a.578.578,0,0,0,.462.335.55.55,0,0,0,.064,0,.578.578,0,0,0,.462-.231l1.56-2.079h2.6a.578.578,0,0,0,.52-.836l-1.9-3.785h3.109ZM33.5,15.018H28.082L25.772,10.4H33.5Z" transform="translate(0 0)"/></g></g></svg>