<svg xmlns="http://www.w3.org/2000/svg" width="46.966" height="32.549" viewBox="0 0 46.966 32.549">
  <path id="Path_6494" data-name="Path 6494" d="M180.414,331.808A1.809,1.809,0,0,1,182.222,330h9.041a1.809,1.809,0,0,1,1.808,1.808v3.617a1.808,1.808,0,1,1-3.617,0v-1.808H184.03v7.233H220.2a1.772,1.772,0,0,1,1.783,1.812c-.474,16.772-7.757,19.887-23.482,19.887s-23.008-3.116-23.482-19.887a1.772,1.772,0,0,1,1.783-1.812h3.617ZM183.2,356c-2.3-1.723-4.036-4.859-4.485-11.531h39.558c-.447,6.672-2.181,9.808-4.485,11.531-2.79,2.087-7.408,2.935-15.294,2.935S185.992,358.084,183.2,356Z" transform="translate(-175.014 -330)" fill="#532270" fill-rule="evenodd"/>
</svg>
