<svg xmlns="http://www.w3.org/2000/svg" xmlns:xlink="http://www.w3.org/1999/xlink" width="54" height="53" viewBox="0 0 54 53">
  <defs>
    <clipPath id="clip-path">
      <rect id="Rectangle_1120" data-name="Rectangle 1120" width="54" height="53" transform="translate(0 0)"/>
    </clipPath>
  </defs>
  <g id="Group_1139" data-name="Group 1139" transform="translate(0 0)" clip-path="url(#clip-path)">
    <path id="Path_2176" data-name="Path 2176" d="M228.278,535.014a26.385,26.385,0,0,1-5.379,16.043,2.081,2.081,0,1,1-3.32-2.51,22.477,22.477,0,1,0-35.88,0,2.081,2.081,0,1,1-3.32,2.51,26.634,26.634,0,1,1,47.9-16.043Zm-13.453-12.535a2.079,2.079,0,0,1,0,2.943l-6.783,6.785a7.291,7.291,0,1,1-2.945-2.943l6.785-6.785A2.079,2.079,0,0,1,214.825,522.479Zm-10.069,13.186a3.117,3.117,0,1,0-3.117,3.117A3.121,3.121,0,0,0,204.756,535.665Z" transform="translate(-174.805 -503.819)"/>
  </g>
</svg>
