<svg xmlns="http://www.w3.org/2000/svg" width="20" height="21.85" viewBox="0 0 20 21.85">
  <path id="Path_2152" data-name="Path 2152" d="M196.077,1231.26s0,0-.008.01C196.073,1231.26,196.076,1231.26,196.077,1231.26Zm-.43.28-.068.1a7.192,7.192,0,0,1-1.169.52,23.033,23.033,0,0,1-12.82,0,7.192,7.192,0,0,1-1.169-.52l-.068-.1a7.257,7.257,0,0,1,1.237-.56,23.03,23.03,0,0,1,12.82,0A7.257,7.257,0,0,1,195.647,1231.54Zm-17.647.03a2,2,0,0,0,1.018,1.54l5.982,8.28v8.53l1.549-1.01,4-2.63.451-.29v-4.6l5.982-8.28a2,2,0,0,0,1.018-1.54c0-1.93-4.477-3.5-10-3.5S178,1229.64,178,1231.57Zm11,10.5h-2v4.15l2-1.31Zm.489-2,4.03-5.58a26.55,26.55,0,0,1-11.038,0l4.03,5.58h2.978Zm-9.566-8.81s0,0,.008.01C179.925,1231.26,179.923,1231.26,179.923,1231.26Z" transform="translate(-178 -1228.07)" fill-rule="evenodd"/>
</svg>
