<svg xmlns="http://www.w3.org/2000/svg" width="38.999" height="40.058" viewBox="0 0 38.999 40.058"><defs><style>.a{fill:#fff;}</style></defs><g transform="translate(-5.224)"><g transform="translate(5.224)"><g transform="translate(0)"><path class="a" d="M10.417,146.286a5.193,5.193,0,1,0,5.193,5.193A5.193,5.193,0,0,0,10.417,146.286Zm0,8.266h0a3.073,3.073,0,1,1,3.073-3.073A3.073,3.073,0,0,1,10.417,154.552Z" transform="translate(-5.224 -131.45)"/><path class="a" d="M157.712,187.037h-23.95a1.06,1.06,0,1,0,0,2.119h23.95a1.06,1.06,0,1,0,0-2.119Z" transform="translate(-119.773 -168.068)"/><path class="a" d="M10.417,0a5.193,5.193,0,1,0,5.193,5.193A5.193,5.193,0,0,0,10.417,0Zm0,8.266A3.073,3.073,0,1,1,13.49,5.193,3.073,3.073,0,0,1,10.417,8.266Z" transform="translate(-5.224)"/><path class="a" d="M133.762,42.87h23.95a1.06,1.06,0,1,0,0-2.119h-23.95a1.06,1.06,0,1,0,0,2.119Z" transform="translate(-119.773 -36.618)"/><path class="a" d="M10.417,292.571a5.193,5.193,0,1,0,5.193,5.193A5.193,5.193,0,0,0,10.417,292.571Zm3.073,5.193a3.073,3.073,0,0,1-3.073,3.073h0a3.073,3.073,0,1,1,3.073-3.073Z" transform="translate(-5.224 -262.898)"/><path class="a" d="M157.712,333.322h-23.95a1.06,1.06,0,1,0,0,2.119h23.95a1.06,1.06,0,1,0,0-2.119Z" transform="translate(-119.773 -299.516)"/></g></g></g></svg>