<svg xmlns="http://www.w3.org/2000/svg" width="20" height="18" viewBox="0 0 20 18">
  <path id="Path_2149" data-name="Path 2149" d="M194.107,1327.64c1.534-.85,1.893-1.69,1.893-2.14s-.359-1.29-1.893-2.14a14.392,14.392,0,0,0-12.214,0c-1.534.85-1.893,1.69-1.893,2.14s.359,1.29,1.893,2.14a14.392,14.392,0,0,0,12.214,0ZM196,1328.8a15.646,15.646,0,0,1-16,0v3.2h0c0,.85.634,1.83,2.122,2.66a13.562,13.562,0,0,0,11.756,0c1.488-.83,2.122-1.81,2.122-2.66Zm2,3.2c0,1.91-1.381,3.43-3.15,4.41a15.551,15.551,0,0,1-13.7,0c-1.769-.98-3.15-2.5-3.15-4.41h0v-6.5c0-3.04,4.477-5.5,10-5.5s10,2.46,10,5.5Zm-10-4.5c2.209,0,4-.9,4-2s-1.791-2-4-2-4,.9-4,2S185.791,1327.5,188,1327.5Z" transform="translate(-178 -1320)" fill-rule="evenodd"/>
</svg>
