<svg xmlns="http://www.w3.org/2000/svg" width="25.973" height="18.634" viewBox="0 0 25.973 18.634">
  <g id="Group_5332" data-name="Group 5332" transform="translate(-175.014 -330)">
    <path id="Path_2182" data-name="Path 2182" d="M178,331a1,1,0,0,1,1-1h5a1,1,0,0,1,1,1v2a1,1,0,0,1-2,0v-1h-3v4h20a.98.98,0,0,1,.986,1c-.262,9.275-4.29,11-12.986,11s-12.724-1.723-12.986-11a.98.98,0,0,1,.986-1h2Zm1.542,13.377c-1.274-.953-2.232-2.687-2.48-6.377h21.876c-.247,3.69-1.206,5.424-2.48,6.377-1.543,1.154-4.1,1.623-8.458,1.623S181.085,345.531,179.542,344.377Z" fill-rule="evenodd"/>
    <path id="Path_2183" data-name="Path 2183" d="M178.866,348.5a1,1,0,0,1-.366-1.366l.5-.866a1,1,0,1,1,1.732,1l-.5.866A1,1,0,0,1,178.866,348.5Z"/>
    <path id="Path_2184" data-name="Path 2184" d="M197.134,348.5a1,1,0,0,0,.366-1.366l-.5-.866a1,1,0,1,0-1.732,1l.5.866A1,1,0,0,0,197.134,348.5Z"/>
  </g>
</svg>
