<svg xmlns="http://www.w3.org/2000/svg" width="26" height="26" viewBox="0 0 26 26">
  <path id="Path_2179" data-name="Path 2179" d="M188,416a1,1,0,0,0-1,1v4a1,1,0,0,0,2,0v-4A1,1,0,0,0,188,416Zm6.364,8.05a1,1,0,0,1-1.414-1.414l2.828-2.828a1,1,0,0,1,1.414,1.414Zm-11.314-1.414a1,1,0,0,1-1.414,1.414l-2.828-2.828a1,1,0,0,1,1.414-1.414ZM188,432a3,3,0,1,0-3-3A3,3,0,0,0,188,432Zm0,2a5,5,0,1,0-5-5A5,5,0,0,0,188,434Zm-7-5a1,1,0,0,0-1-1h-4a1,1,0,0,0,0,2h4A1,1,0,0,0,181,429Zm-.778,9.192a1,1,0,0,1-1.414-1.414l2.828-2.828a1,1,0,0,1,1.414,1.414ZM188,436a1,1,0,0,0-1,1v4a1,1,0,0,0,2,0v-4A1,1,0,0,0,188,436Zm9.192.778a1,1,0,0,1-1.414,1.414l-2.828-2.828a1,1,0,0,1,1.414-1.414ZM201,429a1,1,0,0,0-1-1h-4a1,1,0,0,0,0,2h4A1,1,0,0,0,201,429Z" transform="translate(-175 -416)" fill-rule="evenodd"/>
</svg>
