<svg xmlns="http://www.w3.org/2000/svg" width="26" height="26" viewBox="0 0 26 26">
  <path id="Path_2173" data-name="Path 2173" d="M188,596a13.015,13.015,0,0,0-13,13v12.144a.856.856,0,0,0,.856.856h24.288a.856.856,0,0,0,.856-.856V609A13.015,13.015,0,0,0,188,596Zm.015,13.708a3.256,3.256,0,0,0-.294-1.045l-.017-.04a5.216,5.216,0,0,1-.24-.725,5.109,5.109,0,0,1-.055-2.336,4.646,4.646,0,0,1,.429-1.147c.013-.026.027-.051.041-.077a27.5,27.5,0,0,0,3.18,5.335c.3.427.576.829.822,1.2a8.29,8.29,0,0,1,.948,1.87,6.316,6.316,0,0,1,.288,3.395,5.25,5.25,0,0,1-2.374,3.375c-.009.005-.017.012-.026.018a5.231,5.231,0,0,1-5.964-8.571,1.8,1.8,0,0,0,1.427.672,1.862,1.862,0,0,0,1.347-.593A1.761,1.761,0,0,0,188.015,609.708Zm11.273,10.58h-6.73a6.961,6.961,0,0,0,2.235-3.8,8.023,8.023,0,0,0-.35-4.317,9.965,9.965,0,0,0-1.142-2.255c-.253-.377-.536-.785-.836-1.217-1.242-1.786-2.942-4.232-3.151-5.574a1.266,1.266,0,0,0-2.212-.619h0a5.76,5.76,0,0,0-.787,1.128,6.336,6.336,0,0,0-.579,1.565,6.839,6.839,0,0,0,.067,3.12,7,7,0,0,0,.321.965l.018.042a2.048,2.048,0,0,1,.165.5.171.171,0,0,1-.127.094c-.07,0-.1,0-.126-.125a1.059,1.059,0,0,0-1.576-.715,6.94,6.94,0,0,0-1.046,11.213h-6.72V609a11.288,11.288,0,1,1,22.576,0Z" transform="translate(-175 -596)"/>
</svg>
