<svg xmlns="http://www.w3.org/2000/svg" width="26" height="20" viewBox="0 0 26 20">
  <path id="Path_2146" data-name="Path 2146" d="M177,1411h22v14H177Zm-2-2h26v18h-2v2h-2v-2H179v2h-2v-2h-2v-18Zm11.032,12.45a4.028,4.028,0,0,1-4.064,0l2.032-2.04Zm1.414-1.42a4,4,0,0,0,0-4.06l-1.325,1.32-.707.71Zm-1.414-5.48-1.325,1.33-.707.71-2.032-2.04a4.028,4.028,0,0,1,4.064,0Zm-5.478,1.42a4,4,0,0,0,0,4.06l2.032-2.03ZM190,1418a6,6,0,1,1-6-6A6,6,0,0,1,190,1418Z" transform="translate(-175 -1409)" fill-rule="evenodd"/>
</svg>
