<svg xmlns="http://www.w3.org/2000/svg" width="16" height="23.121" viewBox="0 0 16 23.121">
  <path id="Path_2170" data-name="Path 2170" d="M187.514,687.44l-.23.923a3.523,3.523,0,0,0,.268,2.422,2.516,2.516,0,0,1,.193,1.732l-.231.923.971.242.23-.923a3.52,3.52,0,0,0-.268-2.421,2.517,2.517,0,0,1-.193-1.732l.231-.924Zm-3,0-.23.923a3.523,3.523,0,0,0,.268,2.422,2.516,2.516,0,0,1,.193,1.732l-.231.923.971.242.23-.923a3.52,3.52,0,0,0-.268-2.421,2.517,2.517,0,0,1-.193-1.732l.231-.924Zm6,0-.23.923a3.523,3.523,0,0,0,.268,2.422,2.516,2.516,0,0,1,.193,1.732l-.231.923.971.242.23-.923a3.52,3.52,0,0,0-.268-2.421,2.517,2.517,0,0,1-.193-1.732l.231-.924ZM182,696.561v2h12v-2Zm-1,4h1v9a1,1,0,0,0,1,1h10a1,1,0,0,0,1-1v-9h1a1,1,0,0,0,1-1v-4a1,1,0,0,0-1-1H181a1,1,0,0,0-1,1v4A1,1,0,0,0,181,700.561Zm3,8v-8h8v8Z" transform="translate(-180 -687.44)" fill-rule="evenodd"/>
</svg>
