<svg xmlns="http://www.w3.org/2000/svg" width="31.727" height="36" viewBox="0 0 31.727 36"><defs><style>.a{fill:#f9f8f9;}.b{fill:#e3e0e4;}.c{fill:#dc4955;}.d{fill:#c42430;}</style></defs><g transform="translate(-30.391)"><g transform="translate(30.391 0)"><path class="a" d="M81.319,32.786A3.217,3.217,0,0,1,78.1,36H55.956a3.218,3.218,0,0,1-3.221-3.214V3.214A3.218,3.218,0,0,1,55.956,0H69.74a2.418,2.418,0,0,1,1.71.708l9.163,9.165a2.408,2.408,0,0,1,.706,1.7Z" transform="translate(-51.164 0)"/><path class="b" d="M58.128,36H55.955a3.218,3.218,0,0,1-3.22-3.215V3.215A3.218,3.218,0,0,1,55.955,0h2.173a3.218,3.218,0,0,0-3.22,3.215V32.785A3.218,3.218,0,0,0,58.128,36Z" transform="translate(-51.164 0)"/><path class="b" d="M290.682,11.575v1.176h-8.4a4.356,4.356,0,0,1-4.35-4.351V0H279.1a2.419,2.419,0,0,1,1.709.708l9.164,9.164A2.408,2.408,0,0,1,290.682,11.575Z" transform="translate(-260.527 0)"/><path class="c" d="M319.2,13.461h-8.183a2.178,2.178,0,0,1-2.177-2.178V3.1a2.393,2.393,0,0,1,.708.49l9.164,9.164a2.392,2.392,0,0,1,.489.706Z" transform="translate(-289.26 -2.883)"/><path class="c" d="M59.22,227.557H33.288a2.9,2.9,0,0,1-2.9-2.9V214.084a2.9,2.9,0,0,1,2.9-2.9H59.22a2.9,2.9,0,0,1,2.9,2.9V224.66A2.9,2.9,0,0,1,59.22,227.557Z" transform="translate(-30.391 -196.338)"/><path class="d" d="M35.1,227.557H33.288a2.9,2.9,0,0,1-2.9-2.9V214.084a2.9,2.9,0,0,1,2.9-2.9H35.1a2.9,2.9,0,0,0-2.9,2.9V224.66A2.9,2.9,0,0,0,35.1,227.557Z" transform="translate(-30.391 -196.338)"/><g transform="translate(13.244 18.393)"><path class="a" d="M336.964,262.671a.543.543,0,0,0,0-1.086h-3.322a.543.543,0,0,0-.543.543v8.2a.543.543,0,1,0,1.086,0v-3.633H336.7a.543.543,0,1,0,0-1.086h-2.515v-2.934Z" transform="translate(-325.058 -261.585)"/><path class="a" d="M221.558,262.891h-2.269a.543.543,0,0,0-.543.544v.007h0v7.874a.54.54,0,0,0,.016.13v0a.543.543,0,0,0,.543.541h0c.068,0,1.683-.007,2.327-.018a3.466,3.466,0,0,0,2.735-1.392,5.172,5.172,0,0,0,.968-3.14C225.337,264.719,223.818,262.891,221.558,262.891Zm.057,8c-.4.007-1.222.012-1.769.015,0-.9-.009-2.663-.009-3.469,0-.674,0-2.527,0-3.454h1.725c1.985,0,2.693,1.789,2.693,3.463C224.25,269.442,223.166,270.859,221.615,270.886Z" transform="translate(-218.745 -262.799)"/></g></g><path class="a" d="M109.084,261.444h-2.318c-.474,0-.5.207-.5.5v8.325a.5.5,0,0,0,1,0v-3.12c.541,0,1.4-.008,1.819-.008a2.849,2.849,0,1,0,0-5.7Zm0,4.7c-.416,0-1.262,0-1.806.007,0-.556-.008-1.434-.008-1.858,0-.356,0-1.272,0-1.85h1.817a1.851,1.851,0,1,1,0,3.7Z" transform="translate(-70.541 -243.061)"/></g></svg>