<svg xmlns="http://www.w3.org/2000/svg" width="105.839" height="105.84" viewBox="0 0 105.839 105.84">
  <g id="phone" transform="translate(-0.002 0)">
    <g id="Group_3810" data-name="Group 3810" transform="translate(65.268 0)">
      <g id="Group_3809" data-name="Group 3809">
        <path id="Path_6729" data-name="Path 6729" d="M317.49,0a1.764,1.764,0,0,0,0,3.528,35.32,35.32,0,0,1,35.28,35.28,1.764,1.764,0,1,0,3.528,0A38.852,38.852,0,0,0,317.49,0Z" transform="translate(-315.726)" fill="#754e8c"/>
      </g>
    </g>
    <g id="Group_3812" data-name="Group 3812" transform="translate(65.268 10.584)">
      <g id="Group_3811" data-name="Group 3811">
        <path id="Path_6730" data-name="Path 6730" d="M317.49,51.2a1.764,1.764,0,0,0,0,3.528,24.723,24.723,0,0,1,24.7,24.7,1.764,1.764,0,0,0,3.528,0A28.256,28.256,0,0,0,317.49,51.2Z" transform="translate(-315.726 -51.2)" fill="#754e8c"/>
      </g>
    </g>
    <g id="Group_3814" data-name="Group 3814" transform="translate(65.268 21.168)">
      <g id="Group_3813" data-name="Group 3813">
        <path id="Path_6731" data-name="Path 6731" d="M317.49,102.4a1.764,1.764,0,0,0,0,3.528A14.128,14.128,0,0,1,331.6,120.04a1.764,1.764,0,0,0,3.528,0A17.66,17.66,0,0,0,317.49,102.4Z" transform="translate(-315.726 -102.4)" fill="#754e8c"/>
      </g>
    </g>
    <g id="Group_3816" data-name="Group 3816" transform="translate(0.002 0)">
      <g id="Group_3815" data-name="Group 3815" transform="translate(0 0)">
        <path id="Path_6732" data-name="Path 6732" d="M95.457,66.194A64.467,64.467,0,0,1,81.39,62.7a12.107,12.107,0,0,0-12.72,2.713l-5.576,5.564a80.493,80.493,0,0,1-28.369-28.31l5.58-5.567A12.049,12.049,0,0,0,43.02,24.4a64.2,64.2,0,0,1-3.507-14.056A12.092,12.092,0,0,0,27.477,0H12.044c-.36,0-.72.018-1.076.049A12.037,12.037,0,0,0,.052,13.143a103.711,103.711,0,0,0,16.06,45.273,102.632,102.632,0,0,0,31.4,31.338,104.226,104.226,0,0,0,45.2,16.038q.545.048,1.1.048h.033a12.056,12.056,0,0,0,12-12.075V78.385A12.04,12.04,0,0,0,95.457,66.194Zm6.853,12.127V93.774a8.527,8.527,0,0,1-8.488,8.54c-.275-.011-.54-.011-.773-.032a100.684,100.684,0,0,1-43.64-15.5,99.115,99.115,0,0,1-30.33-30.276A100.168,100.168,0,0,1,3.563,12.8a8.512,8.512,0,0,1,7.723-9.235c.252-.023.5-.035.758-.035H27.578a8.54,8.54,0,0,1,8.439,7.3,67.724,67.724,0,0,0,3.7,14.818,8.512,8.512,0,0,1-1.91,8.963l-6.534,6.52a1.763,1.763,0,0,0-.288,2.122A84.006,84.006,0,0,0,62.51,74.712a1.762,1.762,0,0,0,2.117-.286l6.527-6.513a8.573,8.573,0,0,1,9-1.912A67.921,67.921,0,0,0,94.978,69.69,8.508,8.508,0,0,1,102.31,78.321Z" transform="translate(-0.002 0)" fill="#754e8c"/>
      </g>
    </g>
    <g id="Group_3818" data-name="Group 3818" transform="translate(7.05 7.056)">
      <g id="Group_3817" data-name="Group 3817">
        <path id="Path_6733" data-name="Path 6733" d="M53.508,34.134H39.091c-.148,0-.295.007-.441.021a4.986,4.986,0,0,0-4.535,5.32,100.768,100.768,0,0,0,3.59,18.1,1.767,1.767,0,0,0,1.69,1.26,1.745,1.745,0,0,0,.506-.074,1.764,1.764,0,0,0,1.185-2.194,97.076,97.076,0,0,1-3.459-17.43,1.4,1.4,0,0,1,.34-.944,1.554,1.554,0,0,1,1.124-.526H53.507a1.764,1.764,0,0,0,0-3.528Z" transform="translate(-34.097 -34.134)" fill="#754e8c"/>
      </g>
    </g>
    <g id="Group_3820" data-name="Group 3820" transform="translate(74.088 77.616)">
      <g id="Group_3819" data-name="Group 3819">
        <path id="Path_6734" data-name="Path 6734" d="M381.327,375.467a1.765,1.765,0,0,0-1.764,1.764l0,14.392a1.47,1.47,0,0,1-.427,1.049,1.437,1.437,0,0,1-.993.434l-.162,0a97,97,0,0,1-17.312-3.45,1.764,1.764,0,0,0-1.013,3.38,100.582,100.582,0,0,0,17.975,3.581c.145.014.439.021.482.021a5,5,0,0,0,4.978-5.018l0-14.385A1.765,1.765,0,0,0,381.327,375.467Z" transform="translate(-358.396 -375.467)" fill="#754e8c"/>
      </g>
    </g>
  </g>
</svg>
