<svg xmlns="http://www.w3.org/2000/svg" xmlns:xlink="http://www.w3.org/1999/xlink" width="18" height="17" viewBox="0 0 18 17">
  <defs>
    <clipPath id="clip-path">
      <rect id="Rectangle_3426" data-name="Rectangle 3426" width="18" height="17" transform="translate(0.003 -0.474)" fill="#fff"/>
    </clipPath>
  </defs>
  <g id="Group_3559" data-name="Group 3559" transform="translate(-0.003 0.474)" clip-path="url(#clip-path)">
    <path id="Path_6453" data-name="Path 6453" d="M792.544,1486.8a.943.943,0,0,0-.8-.642l-5.078-.457-2.007-4.7a.932.932,0,0,0-1.719,0l-2.007,4.7-5.078.457a.936.936,0,0,0-.532,1.636l3.839,3.368-1.132,4.987a.928.928,0,0,0,.363.959.908.908,0,0,0,.549.185.939.939,0,0,0,.479-.132l4.378-2.621,4.378,2.621a.948.948,0,0,0,1.028-.053.928.928,0,0,0,.363-.959l-1.132-4.987,3.839-3.368A.935.935,0,0,0,792.544,1486.8Z" transform="translate(-774.525 -1480.35)" fill="#532270"/>
  </g>
</svg>
