<svg id="time" xmlns="http://www.w3.org/2000/svg" width="105.839" height="105.839" viewBox="0 0 105.839 105.839">
  <g id="Group_3782" data-name="Group 3782" transform="translate(34.987 22.994)">
    <g id="Group_3781" data-name="Group 3781">
      <path id="Path_6723" data-name="Path 6723" d="M187.182,136.509a4.657,4.657,0,0,0-.849.079l-14.19-24.578a1.55,1.55,0,1,0-2.685,1.55l14.192,24.58a4.646,4.646,0,0,0,1.983,7.4v34.582a1.55,1.55,0,0,0,3.1,0V145.544a4.651,4.651,0,0,0-1.55-9.036Zm0,6.2a1.55,1.55,0,1,1,1.55-1.55A1.552,1.552,0,0,1,187.182,142.71Z" transform="translate(-169.249 -111.234)" fill="#754e8c"/>
    </g>
  </g>
  <g id="Group_3784" data-name="Group 3784" transform="translate(0 0)">
    <g id="Group_3783" data-name="Group 3783" transform="translate(0 0)">
      <path id="Path_6724" data-name="Path 6724" d="M90.339,15.5A52.92,52.92,0,0,0,15.5,90.339,52.92,52.92,0,0,0,90.339,15.5ZM52.92,102.738A49.819,49.819,0,1,1,102.738,52.92,49.875,49.875,0,0,1,52.92,102.738Z" transform="translate(0 0)" fill="#754e8c"/>
    </g>
  </g>
  <g id="Group_3786" data-name="Group 3786" transform="translate(51.369 12.403)">
    <g id="Group_3785" data-name="Group 3785">
      <circle id="Ellipse_45" data-name="Ellipse 45" cx="1.55" cy="1.55" r="1.55" fill="#754e8c"/>
    </g>
  </g>
  <g id="Group_3788" data-name="Group 3788" transform="translate(31.886 17.623)">
    <g id="Group_3787" data-name="Group 3787">
      <circle id="Ellipse_46" data-name="Ellipse 46" cx="1.55" cy="1.55" r="1.55" fill="#754e8c"/>
    </g>
  </g>
  <g id="Group_3790" data-name="Group 3790" transform="translate(17.623 31.886)">
    <g id="Group_3789" data-name="Group 3789">
      <circle id="Ellipse_47" data-name="Ellipse 47" cx="1.55" cy="1.55" r="1.55" fill="#754e8c"/>
    </g>
  </g>
  <g id="Group_3792" data-name="Group 3792" transform="translate(12.403 51.369)">
    <g id="Group_3791" data-name="Group 3791">
      <circle id="Ellipse_48" data-name="Ellipse 48" cx="1.55" cy="1.55" r="1.55" fill="#754e8c"/>
    </g>
  </g>
  <g id="Group_3794" data-name="Group 3794" transform="translate(17.623 70.852)">
    <g id="Group_3793" data-name="Group 3793">
      <circle id="Ellipse_49" data-name="Ellipse 49" cx="1.55" cy="1.55" r="1.55" fill="#754e8c"/>
    </g>
  </g>
  <g id="Group_3796" data-name="Group 3796" transform="translate(31.886 85.116)">
    <g id="Group_3795" data-name="Group 3795">
      <circle id="Ellipse_50" data-name="Ellipse 50" cx="1.55" cy="1.55" r="1.55" fill="#754e8c"/>
    </g>
  </g>
  <g id="Group_3798" data-name="Group 3798" transform="translate(70.852 85.116)">
    <g id="Group_3797" data-name="Group 3797">
      <circle id="Ellipse_51" data-name="Ellipse 51" cx="1.55" cy="1.55" r="1.55" fill="#754e8c"/>
    </g>
  </g>
  <g id="Group_3800" data-name="Group 3800" transform="translate(85.116 70.852)">
    <g id="Group_3799" data-name="Group 3799">
      <circle id="Ellipse_52" data-name="Ellipse 52" cx="1.55" cy="1.55" r="1.55" fill="#754e8c"/>
    </g>
  </g>
  <g id="Group_3802" data-name="Group 3802" transform="translate(90.335 51.369)">
    <g id="Group_3801" data-name="Group 3801">
      <circle id="Ellipse_53" data-name="Ellipse 53" cx="1.55" cy="1.55" r="1.55" fill="#754e8c"/>
    </g>
  </g>
  <g id="Group_3804" data-name="Group 3804" transform="translate(85.116 31.886)">
    <g id="Group_3803" data-name="Group 3803">
      <circle id="Ellipse_54" data-name="Ellipse 54" cx="1.55" cy="1.55" r="1.55" fill="#754e8c"/>
    </g>
  </g>
  <g id="Group_3806" data-name="Group 3806" transform="translate(70.852 17.623)">
    <g id="Group_3805" data-name="Group 3805">
      <circle id="Ellipse_55" data-name="Ellipse 55" cx="1.55" cy="1.55" r="1.55" fill="#754e8c"/>
    </g>
  </g>
  <g id="Group_3808" data-name="Group 3808" transform="translate(6.202 6.202)">
    <g id="Group_3807" data-name="Group 3807">
      <path id="Path_6725" data-name="Path 6725" d="M109.753,43.683a46.717,46.717,0,0,0-63.723-2.189,1.55,1.55,0,1,0,2.038,2.337,43.619,43.619,0,1,1-4.235,4.235,1.55,1.55,0,1,0-2.337-2.038,46.718,46.718,0,1,0,68.258-2.346Z" transform="translate(-30 -30)" fill="#754e8c"/>
    </g>
  </g>
</svg>
