<svg xmlns="http://www.w3.org/2000/svg" width="25.03" height="29.996" viewBox="0 0 25.03 29.996">
  <g id="Group_5327" data-name="Group 5327" transform="translate(-1617.46 -60)">
    <path id="Path_1227" data-name="Path 1227" d="M1629.79,74.451a7.233,7.233,0,1,0-5.11-2.117A7.011,7.011,0,0,0,1629.79,74.451Z" fill="#532270"/>
    <path id="Path_1228" data-name="Path 1228" d="M1642.43,83.065a17.812,17.812,0,0,0-.24-1.9,15.957,15.957,0,0,0-.47-1.906,9.522,9.522,0,0,0-.78-1.777,6.922,6.922,0,0,0-1.18-1.54,5.264,5.264,0,0,0-1.7-1.066,5.892,5.892,0,0,0-2.17-.392,2.2,2.2,0,0,0-1.17.5c-.36.229-.77.495-1.23.789a6.874,6.874,0,0,1-1.58.7,6.14,6.14,0,0,1-3.87,0,6.864,6.864,0,0,1-1.58-.7c-.46-.291-.87-.556-1.23-.789a2.2,2.2,0,0,0-1.17-.5,5.888,5.888,0,0,0-2.17.393,5.249,5.249,0,0,0-1.7,1.066,6.93,6.93,0,0,0-1.18,1.54,9.519,9.519,0,0,0-.78,1.778,15.994,15.994,0,0,0-.47,1.906,17.779,17.779,0,0,0-.24,1.9c-.04.574-.06,1.17-.06,1.772a4.988,4.988,0,0,0,1.48,3.769A5.321,5.321,0,0,0,1622.75,90h14.45a5.32,5.32,0,0,0,3.81-1.391,4.987,4.987,0,0,0,1.48-3.769C1642.49,84.232,1642.47,83.636,1642.43,83.065Z" fill="#532270"/>
  </g>
</svg>
